<?xml version="1.0" encoding="utf-8"?>
<!-- Generator: Adobe Illustrator 21.0.0, SVG Export Plug-In . SVG Version: 6.00 Build 0)  -->
<svg version="1.1" id="XMLID_6_" xmlns="http://www.w3.org/2000/svg" xmlns:xlink="http://www.w3.org/1999/xlink" x="0px" y="0px"
	 viewBox="0 0 800 800" style="enable-background:new 0 0 800 800;" xml:space="preserve">
<style type="text/css">
	.st0{fill:#FFFFFF;}
</style>
<g id="social-twitter">
	<path class="st0" d="M800,94.4c-30.1,16.4-60.3,28.7-93.7,32.8c33.5-24.6,60.3-65.6,73.6-110.8C746.4,41,713,57.4,676.2,65.6
		C646,24.6,602.5,0,555.6,0c-90.4,0-164,90.3-164,201c0,16.4,0,32.8,3.3,45.1c-137.2-8.2-257.7-90.3-338.1-209.2
		c-13.4,28.7-23.4,65.6-23.4,102.6c0,69.7,30.1,131.3,73.6,168.2c-26.8,0-53.6-8.2-73.6-24.6c0,0,0,0,0,4.1
		c0,98.5,56.9,180.5,130.5,196.9c-13.4,4.1-26.8,8.2-43.5,8.2c-10,0-20.1,0-30.1-4.1c20.1,82.1,80.3,139.5,154,139.5
		c-56.9,53.3-127.2,86.2-204.2,86.2c-13.4,0-26.8,0-40.2-4.1C73.6,767.2,160.7,800,251,800c304.6,0,468.6-307.7,468.6-574.4
		c0-8.2,0-16.4,0-24.6C749.8,168.2,776.6,131.3,800,94.4z"/>
</g>
</svg>
