<?xml version="1.0" encoding="utf-8"?>
<!-- Generator: Adobe Illustrator 21.0.0, SVG Export Plug-In . SVG Version: 6.00 Build 0)  -->
<svg version="1.1" id="Layer_1" xmlns="http://www.w3.org/2000/svg" xmlns:xlink="http://www.w3.org/1999/xlink" x="0px" y="0px"
	 viewBox="0 0 800 800" style="enable-background:new 0 0 800 800;" xml:space="preserve">
<style type="text/css">
	.st0{fill:#FFFFFF;}
</style>
<path class="st0" d="M505.1,630.1c8.9,86-190.9,89.8-214,29.9c-19.4-50.4,4.8-64.7,62.1-77.7C418.1,567.6,499.1,572.6,505.1,630.1z
	 M318.7,253.5c-101-191.7,232.3-177.9,131.2,0C416.6,274.9,351.4,277,318.7,253.5z M650,2.4c-82.1,44.7-166.8,7-227.8,0
	C152.8-28.5,67.1,245.3,263.4,355.1c-50.6,22.8-47.3,138.9,6.9,155.4c-127.6,12.7-151.3,169.3-82.9,233.2
	c83.2,77.7,339.1,72.5,414.2,0c52.4-50.6,59.7-155.1,13.8-203.2c-41.8-44-251.8-50.6-248.5-119.6c2.3-48.2,78.2-40.6,124.3-59.8
	C577.9,325,628.8,217,594.8,133.9c19.3-3.2,35.9-8.8,55.3-11.9V2.4z"/>
</svg>
