<?xml version="1.0" encoding="utf-8"?>
<!-- Generator: Adobe Illustrator 21.0.0, SVG Export Plug-In . SVG Version: 6.00 Build 0)  -->
<svg version="1.1" id="Layer_1" xmlns="http://www.w3.org/2000/svg" xmlns:xlink="http://www.w3.org/1999/xlink" x="0px" y="0px"
	 viewBox="0 0 800 800" style="enable-background:new 0 0 800 800;" xml:space="preserve">
<style type="text/css">
	.st0{fill:#FFFFFF;}
</style>
<path class="st0" d="M668.2,307.3C668.2,123.5,567.8,0,418.2,0c-147.2,0-250,126.4-250,307.3c0,64.7,18.7,159.2,53.1,206.8
	l58.2-92.9c-12.8-17.7-25.9-75.2-25.9-113.9c0-124.6,82.7-180.5,164.5-180.5c79.6,0,164.5,47.4,164.5,180.5
	c0,149-116.8,165.6-159.8,166.5V233.4h-91.2v385.5c0,39-28.4,56-58.7,23.4v139.1c18.9,13.8,36,18.6,50.7,18.6
	c16.4,0,29.9-6.1,39.2-12.2c36-23.5,60.1-79.3,60.1-138.7v-48.5C572.1,598.2,668.2,483.7,668.2,307.3z"/>
</svg>
